%FSLAX35Y35*%
%MOIN*%
G04 2=Kupferunten/CopperbottomL2(X.Bot)*
%ADD10C,0.00591*%
%ADD11C,0.00512*%
%ADD12C,0.00768*%
%ADD13C,0.01024*%
%ADD14C,0.01181*%
%ADD15C,0.03937*%
%ADD16C,0.13780*%
%AMR_17*21,1,0.05000,0.09843,0,0,0.000*%
%ADD17R_17*%
%AMR_18*21,1,0.06500,0.08500,0,0,90.000*%
%ADD18R_18*%
%AMR_19*21,1,0.07087,0.07087,0,0,0.000*%
%ADD19R_19*%
%AMR_20*21,1,0.07087,0.07087,0,0,180.000*%
%ADD20R_20*%
%AMOCT_21*4,1,8,0.033465,0.016732,0.016732,0.033465,-0.016732,0.033465,-0.033465,0.016732,-0.033465,-0.016732,-0.016732,-0.033465,0.016732,-0.033465,0.033465,-0.016732,0.033465,0.016732,0.000*%
%ADD21OCT_21*%
%AMOCT_22*4,1,8,0.035433,0.017717,0.017717,0.035433,-0.017717,0.035433,-0.035433,0.017717,-0.035433,-0.017717,-0.017717,-0.035433,0.017717,-0.035433,0.035433,-0.017717,0.035433,0.017717,0.000*%
%ADD22OCT_22*%
%AMOCT_23*4,1,8,0.035433,0.017717,0.017717,0.035433,-0.017717,0.035433,-0.035433,0.017717,-0.035433,-0.017717,-0.017717,-0.035433,0.017717,-0.035433,0.035433,-0.017717,0.035433,0.017717,90.000*%
%ADD23OCT_23*%
%AMOCT_24*4,1,8,0.035433,0.017717,0.017717,0.035433,-0.017717,0.035433,-0.035433,0.017717,-0.035433,-0.017717,-0.017717,-0.035433,0.017717,-0.035433,0.035433,-0.017717,0.035433,0.017717,180.000*%
%ADD24OCT_24*%
%AMOCT_25*4,1,8,0.035433,0.017717,0.017717,0.035433,-0.017717,0.035433,-0.035433,0.017717,-0.035433,-0.017717,-0.017717,-0.035433,0.017717,-0.035433,0.035433,-0.017717,0.035433,0.017717,270.000*%
%ADD25OCT_25*%
%AMOCT_26*4,1,8,0.039370,0.019685,0.019685,0.039370,-0.019685,0.039370,-0.039370,0.019685,-0.039370,-0.019685,-0.019685,-0.039370,0.019685,-0.039370,0.039370,-0.019685,0.039370,0.019685,0.000*%
%ADD26OCT_26*%
%AMOCT_27*4,1,8,0.039370,0.019685,0.019685,0.039370,-0.019685,0.039370,-0.039370,0.019685,-0.039370,-0.019685,-0.019685,-0.039370,0.019685,-0.039370,0.039370,-0.019685,0.039370,0.019685,180.000*%
%ADD27OCT_27*%
%AMOCT_28*4,1,8,0.039370,0.019685,0.019685,0.039370,-0.019685,0.039370,-0.039370,0.019685,-0.039370,-0.019685,-0.019685,-0.039370,0.019685,-0.039370,0.039370,-0.019685,0.039370,0.019685,270.000*%
%ADD28OCT_28*%
%AMOCT_29*4,1,8,0.061024,0.030512,0.030512,0.061024,-0.030512,0.061024,-0.061024,0.030512,-0.061024,-0.030512,-0.030512,-0.061024,0.030512,-0.061024,0.061024,-0.030512,0.061024,0.030512,180.000*%
%ADD29OCT_29*%
%AMOCT_30*4,1,8,0.062992,0.031496,0.031496,0.062992,-0.031496,0.062992,-0.062992,0.031496,-0.062992,-0.031496,-0.031496,-0.062992,0.031496,-0.062992,0.062992,-0.031496,0.062992,0.031496,180.000*%
%ADD30OCT_30*%
%AMOCT_31*4,1,8,0.072835,0.036417,0.036417,0.072835,-0.036417,0.072835,-0.072835,0.036417,-0.072835,-0.036417,-0.036417,-0.072835,0.036417,-0.072835,0.072835,-0.036417,0.072835,0.036417,180.000*%
%ADD31OCT_31*%
%ADD32O,0.05000X0.09843*%
%ADD33O,0.08500X0.06500*%
G54D14*
X120000Y132500D02*
X120000Y150000D01*
X138772Y168772D01*
X150009Y168772D01*
X175691Y194454D01*
X175691Y211720D01*
X212500Y248529D02*
X212500Y250000D01*
X175691Y211720D02*
X175691Y234308D01*
X178882Y237500D01*
X200000Y237500D01*
X212500Y250000D01*
X115000Y190000D02*
X115000Y181282D01*
X130009Y168772D01*
X117500Y250000D02*
X117500Y225000D01*
X100000Y207500D01*
X100000Y132500D02*
X100000Y207500D01*
X107500Y250000D02*
X107500Y225000D01*
X90000Y207500D01*
X90000Y132500D01*
X97500Y250000D02*
X97500Y225000D01*
X85000Y212500D01*
X85000Y137500D01*
X80000Y132500D01*
X87500Y250000D02*
X87500Y225000D01*
X75000Y212500D01*
X75000Y137500D01*
X70000Y132500D01*
X77500Y250000D02*
X77500Y225000D01*
X65000Y212500D01*
X65000Y137500D01*
X60000Y132500D01*
X40000Y212500D02*
X40000Y107500D01*
X45000Y102500D01*
X60000Y102500D01*
X42204Y73858D02*
X37500Y78562D01*
X37500Y95000D01*
X45000Y102500D01*
X187500Y162500D02*
X187500Y155000D01*
X212500Y130000D01*
X212500Y82500D01*
X222500Y72500D01*
X235000Y72500D01*
X240000Y67500D01*
X240000Y30000D01*
X222500Y12500D01*
X180000Y12500D01*
X167500Y25000D01*
X47500Y25000D01*
X22500Y50000D01*
X22500Y195000D01*
X40000Y212500D01*
X57500Y212500D01*
X95000Y50000D02*
X95000Y60000D01*
X70000Y85000D01*
X70000Y102500D01*
X105000Y50000D02*
X105000Y60000D01*
X80000Y85000D01*
X80000Y102500D01*
X155000Y232500D02*
X172500Y250000D01*
X155000Y232500D02*
X132500Y232500D01*
X105000Y205000D01*
X105000Y127500D02*
X80000Y102500D01*
X105000Y127500D02*
X105000Y205000D01*
X115000Y50000D02*
X115000Y60000D01*
X90000Y85000D01*
X90000Y102500D01*
X125000Y50000D02*
X125000Y60000D01*
X100000Y85000D01*
X100000Y102500D01*
X135000Y57500D02*
X110000Y82500D01*
X110000Y102500D01*
X135000Y50000D02*
X135000Y57500D01*
X145000Y50000D02*
X152500Y57500D01*
X152500Y95000D01*
X160000Y102500D01*
X155000Y50000D02*
X162500Y57500D01*
X162500Y95000D01*
X170000Y102500D01*
X165000Y50000D02*
X172500Y57500D01*
X172500Y95000D01*
X180000Y102500D01*
X190000Y132500D02*
X197500Y125000D01*
X197500Y85000D01*
X185000Y72500D01*
X185000Y50000D01*
X175000Y50000D02*
X180000Y55000D01*
X180000Y92500D01*
X190000Y102500D01*
X137500Y220000D02*
X142500Y225000D01*
X152411Y225000D01*
X165691Y211720D01*
X57500Y232500D02*
X57500Y255000D01*
X75000Y272500D01*
X140000Y272500D01*
X162500Y250000D01*
X235000Y212500D02*
X230000Y217500D01*
X220000Y217500D01*
X215000Y212500D01*
X215000Y170000D01*
X225000Y160000D01*
X235000Y160000D01*
X240000Y165000D01*
X240000Y172500D01*
X238521Y173978D01*
X230312Y173978D01*
X235000Y222500D02*
X230000Y227500D01*
X215000Y227500D01*
X207500Y220000D01*
X207500Y162500D01*
X222500Y147500D01*
X237500Y147500D01*
X254721Y164721D01*
X254721Y173978D01*
X140000Y132500D02*
X140000Y140000D01*
X187500Y187500D01*
X187500Y202500D01*
G54D17*
X60000Y102500D03*
G54D18*
X235000Y212500D03*
G54D19*
X95000Y50000D03*
G54D20*
X127500Y250000D03*
X212500Y250000D03*
G54D21*
X95000Y190000D03*
X115000Y190000D03*
G54D22*
X105000Y50000D03*
X115000Y50000D03*
X125000Y50000D03*
X135000Y50000D03*
X145000Y50000D03*
X155000Y50000D03*
X165000Y50000D03*
X175000Y50000D03*
X185000Y50000D03*
X195000Y50000D03*
X205000Y50000D03*
X215000Y50000D03*
X225000Y50000D03*
X165691Y211720D03*
X175691Y211720D03*
G54D23*
X187500Y162500D03*
X187500Y202500D03*
G54D24*
X117500Y250000D03*
X107500Y250000D03*
X97500Y250000D03*
X87500Y250000D03*
X77500Y250000D03*
X202500Y250000D03*
X192500Y250000D03*
X182500Y250000D03*
X172500Y250000D03*
X162500Y250000D03*
G54D25*
X137500Y220000D03*
X137500Y180000D03*
G54D26*
X125000Y80000D03*
X145000Y80000D03*
X42204Y56141D03*
X67795Y56141D03*
X42204Y73858D03*
X67795Y73858D03*
G54D27*
X150009Y168772D03*
X130009Y168772D03*
G54D28*
X57500Y232500D03*
X57500Y212500D03*
G54D29*
X242910Y192482D03*
G54D30*
X254721Y173978D03*
G54D31*
X230312Y173978D03*
G54D32*
X130000Y132500D03*
X120000Y132500D03*
X110000Y132500D03*
X100000Y132500D03*
X90000Y132500D03*
X80000Y132500D03*
X70000Y132500D03*
X60000Y132500D03*
X170000Y132500D03*
X160000Y132500D03*
X150000Y132500D03*
X140000Y132500D03*
X70000Y102500D03*
X80000Y102500D03*
X90000Y102500D03*
X100000Y102500D03*
X110000Y102500D03*
X120000Y102500D03*
X130000Y102500D03*
X140000Y102500D03*
X150000Y102500D03*
X160000Y102500D03*
X170000Y102500D03*
X180000Y102500D03*
X190000Y102500D03*
X190000Y132500D03*
X180000Y132500D03*
G54D33*
X235000Y222500D03*
X235000Y232500D03*
M02*
